<svg xmlns="http://www.w3.org/2000/svg" viewBox="0 0 36.5 33.9">
  <defs>
    <style>
      .a{fill:#fff}
    </style>
  </defs>
  <path class="a" d="M31.3 0H2.5A2.5 2.5 0 0 0 0 2.5v29a2.5 2.5 0 0 0 2.5 2.4h28.8a2.5 2.5 0 0 0 2.5-2.4v-29A2.5 2.5 0 0 0 31.3 0zM10 28.9H5V12.7h5zM7.5 10.5a2.9 2.9 0 1 1 2.9-2.9 2.9 2.9 0 0 1-2.9 2.9zm21.3 18.4h-5V21c0-1.8 0-4.3-2.6-4.3s-3 2.1-3 4.2v8h-5V12.7H18v2.2a5.6 5.6 0 0 1 4.8-2.6c5.1 0 6 3.4 6 7.7zM35.7 28.3c.2-.1.2-.2.2-.3a.3.3 0 0 0-.3-.3h-.4v1h.2v-.4h.2l.2.4h.2l-.3-.4zm-.2-.1h-.1v-.4h.2a.2.2 0 0 1 .2.2c0 .1-.1.2-.3.2z"/>
  <path class="a" d="M35.6 27.3a.9.9 0 1 0 .9.9.9.9 0 0 0-.9-.9zm0 1.7a.8.8 0 0 1 0-1.6.8.8 0 0 1 0 1.6z"/>
</svg>
